<?xml version="1.0" standalone="no"?>
<!DOCTYPE svg PUBLIC "-//W3C//DTD SVG 20010904//EN"
 "http://www.w3.org/TR/2001/REC-SVG-20010904/DTD/svg10.dtd">
<svg version="1.0" xmlns="http://www.w3.org/2000/svg"
 width="700.000000pt" height="700.000000pt" viewBox="0 0 700.000000 700.000000"
 preserveAspectRatio="xMidYMid meet">
<metadata>
Created by potrace 1.14, written by Peter Selinger 2001-2017
</metadata>
<g transform="translate(0.000000,700.000000) scale(0.100000,-0.100000)"
fill="#000000" stroke="none">
<path d="M3200 6899 c-1330 -116 -2489 -1024 -2921 -2289 -101 -294 -179 -690
-179 -912 l0 -68 40 0 40 0 0 -130 0 -130 -40 0 -40 0 0 -70 c0 -84 32 -340
59 -472 151 -729 505 -1350 1060 -1859 l93 -86 -35 -51 c-19 -29 -38 -69 -42
-91 -42 -249 476 -487 1280 -590 691 -88 1368 -78 2025 30 460 76 823 204 981
347 93 84 121 157 93 239 l-16 47 29 26 c292 254 438 407 611 641 294 399 501
870 597 1359 27 143 52 337 57 450 l3 75 -42 3 -42 3 2 129 2 130 43 0 42 0 0
63 c0 151 -46 448 -105 672 -364 1393 -1576 2414 -3008 2534 -145 12 -446 12
-587 0z m505 -2604 c262 -72 478 -273 566 -528 137 -398 -50 -835 -433 -1011
-101 -47 -176 -65 -293 -73 -396 -24 -746 234 -845 621 -14 57 -20 112 -20
196 0 144 22 239 84 365 115 232 313 384 576 440 82 18 282 12 365 -10z
m-2291 -1005 l1212 0 18 -57 c100 -319 380 -560 710 -614 94 -15 277 -7 366
16 87 23 218 85 294 139 154 110 296 308 337 470 l11 46 1213 0 c668 0 1220 3
1229 6 21 8 21 -21 1 -191 -86 -735 -419 -1425 -944 -1955 -270 -272 -553
-475 -896 -645 -713 -351 -1510 -437 -2277 -244 -587 147 -1115 448 -1549 881
-556 556 -897 1290 -964 2077 -7 77 -6 83 10 78 9 -4 562 -7 1229 -7z"/>
<path d="M3420 4233 c-302 -39 -539 -237 -630 -528 -29 -95 -37 -247 -17 -342
64 -297 278 -516 572 -584 81 -19 249 -14 337 9 241 65 430 243 515 487 25 73
27 92 27 225 0 133 -2 152 -27 225 -84 242 -277 425 -511 485 -77 19 -207 31
-266 23z m244 -93 c217 -55 391 -219 462 -436 26 -79 29 -103 29 -209 -1 -108
-4 -129 -31 -206 -98 -276 -340 -449 -628 -449 -161 0 -301 50 -423 150 -103
83 -191 225 -224 360 -17 71 -17 229 0 300 33 134 127 285 228 365 70 56 178
110 259 129 88 21 236 20 328 -4z"/>
</g>
</svg>
