<?xml version="1.0" encoding="UTF-8" standalone="no"?>
<!-- Created with Inkscape (http://www.inkscape.org/) -->

<svg
   width="100.0px"
   height="100.0px"
   viewBox="0 0 100.0 100.0"
   version="1.1"
   id="SVGRoot"
   xmlns="http://www.w3.org/2000/svg"
   xmlns:svg="http://www.w3.org/2000/svg">
  <defs
     id="defs824" />
  <g
     id="layer1">
    <ellipse
       style="fill:#0f0f0f;fill-opacity:0.292605;stroke:none;stroke-width:0.341;stroke-miterlimit:4;stroke-dasharray:none"
       id="path4906"
       cx="48.981689"
       cy="89.845421"
       rx="31.468737"
       ry="8.8846416" />
    <g
       id="g2246"
       transform="matrix(0.96474871,0,0,0.96474871,1.7069776,1.7625638)"
       style="opacity:1;stroke-width:1.00026047;stroke-miterlimit:4;stroke-dasharray:none">
      <path
         id="path939"
         style="fill:#f2f2f2;fill-opacity:1;stroke:#333333;stroke-width:1.00026047;stroke-miterlimit:4;stroke-dasharray:none"
         d="M 99.820312,52.5 H 0.1796875 A 50,50 0 0 0 50,100 50,50 0 0 0 99.820312,52.5 Z" />
      <path
         id="path1848"
         style="fill:#1a1a1a;fill-opacity:1;stroke:#333333;stroke-width:1.00026047;stroke-miterlimit:4;stroke-dasharray:none"
         d="M 98.581495,47.493775 H 1.5311173 A 48.643947,50.124501 0 0 0 1.3563026,50 48.643947,50.124501 0 0 0 1.5311173,52.506225 H 98.46938 A 48.643947,50.124501 0 0 0 98.644197,50 48.643947,50.124501 0 0 0 98.581543,47.493775 Z" />
      <path
         id="path1846"
         style="fill:#ff0000;fill-opacity:1;stroke:#333333;stroke-width:1.00026047;stroke-miterlimit:4;stroke-dasharray:none"
         d="M 50,0 A 50,50 0 0 0 0.1796875,47.5 H 99.935547 A 50,50 0 0 0 50,0 Z" />
      <circle
         style="fill:#e6e6e6;fill-opacity:1;stroke:#333333;stroke-width:1.00026047;stroke-miterlimit:4;stroke-dasharray:none"
         id="path1954"
         cx="50"
         cy="50"
         r="12.690478" />
      <circle
         style="fill:#e6e6e6;fill-opacity:1;stroke:#333333;stroke-width:1.00026047;stroke-miterlimit:4;stroke-dasharray:none"
         id="path1954-2"
         cx="50"
         cy="50"
         r="10.364721" />
    </g>
    <path
       id="path2964"
       style="fill:#f2f2f2;fill-opacity:0.292605;stroke-width:1.29055"
       d="m 66.694266,11.25913 c 7.660246,0.153334 11.381203,2.215438 15.138732,8.114933 C 85.590524,25.273559 88.827477,34.135708 85,40 78.734255,36.808041 87.330934,11.25913 66.694266,11.25913 Z" />
  </g>
</svg>
